<!DOCTYPE svg PUBLIC "-//W3C//DTD SVG 20010904//EN" "http://www.w3.org/TR/2001/REC-SVG-20010904/DTD/svg10.dtd">
<svg version="1.0" xmlns="http://www.w3.org/2000/svg" width="227px" height="142px" viewBox="0 0 2270 1420" preserveAspectRatio="xMidYMid meet">
<g id="layer101" fill="#2d6184" stroke="none">
 <path d="M0 710 l0 -710 1135 0 1135 0 0 710 0 710 -1135 0 -1135 0 0 -710z"/>
 </g>
<g id="layer102" fill="#1579b1" stroke="none">
 <path d="M0 710 l0 -710 1135 0 1135 0 0 710 0 710 -1135 0 -1135 0 0 -710z m1064 450 l39 -12 -64 -35 c-57 -31 -70 -34 -119 -29 -30 3 -84 2 -120 -3 -36 -5 -66 -7 -68 -6 -2 2 -4 22 -5 46 -2 41 0 44 28 51 42 10 262 1 309 -12z m539 -107 c23 -5 26 -9 21 -27 -23 -75 -122 -233 -181 -288 l-29 -28 4 73 c4 59 10 79 34 115 16 23 43 72 60 108 23 50 34 64 47 59 9 -4 28 -9 44 -12z m-313 -49 c7 -30 10 -58 7 -60 -5 -6 -136 69 -137 78 0 7 83 36 107 37 6 1 17 -24 23 -55z m-322 -206 l-3 -41 -49 44 -48 44 48 45 49 45 3 -48 c2 -26 2 -66 0 -89z m316 -95 c-3 -16 -10 -45 -15 -65 l-9 -37 -61 21 c-33 11 -58 22 -55 25 9 9 131 81 139 82 4 1 5 -11 1 -26z m-249 -181 c16 -31 46 -79 65 -105 l34 -48 -31 -31 c-17 -17 -36 -27 -42 -24 -31 20 -120 173 -151 261 -10 27 -21 58 -25 68 -6 13 11 7 56 -23 50 -32 69 -52 94 -98z"/>
 </g>
<g id="layer103" fill="#2976a3" stroke="none">
 <path d="M0 710 l0 -710 1135 0 1135 0 0 710 0 710 -1135 0 -1135 0 0 -710z m1064 450 l39 -12 -60 -32 c-57 -30 -67 -32 -169 -34 -60 -1 -118 -3 -129 -4 -14 -2 -20 3 -21 17 -1 11 -5 27 -8 36 -8 19 9 35 44 42 41 9 262 -1 304 -13z m509 -96 c4 -1 8 -2 10 -4 1 -1 10 -3 20 -5 11 -2 21 -6 24 -9 9 -9 -65 -156 -111 -220 -24 -34 -57 -73 -73 -88 l-29 -28 4 72 c4 62 9 79 42 130 21 32 48 83 61 113 14 33 27 51 33 47 6 -4 14 -7 19 -8z m-286 -19 c-4 -8 -2 -17 3 -20 5 -3 9 -16 9 -28 0 -12 3 -33 7 -46 l7 -24 -44 27 c-24 15 -59 35 -76 43 -18 9 -33 20 -33 25 0 8 84 36 114 37 12 1 16 -4 13 -14z m-319 -246 l-3 -41 -47 42 c-47 41 -47 41 -31 67 10 14 31 34 48 44 l30 19 3 -45 c2 -25 2 -64 0 -86z m316 -96 c-18 -82 -26 -103 -38 -103 -7 0 -16 3 -20 8 -4 4 -12 8 -17 8 -5 1 -11 3 -14 4 -3 1 -9 4 -15 5 -5 1 -12 4 -15 5 -5 3 -20 7 -32 9 -8 1 137 88 150 90 4 1 5 -11 1 -26z m-249 -182 c17 -32 48 -81 68 -109 l37 -50 -31 -26 c-17 -14 -35 -26 -40 -26 -24 0 -125 168 -158 262 -11 29 -22 61 -26 71 -6 13 11 7 56 -23 50 -32 69 -52 94 -99z"/>
 </g>
<g id="layer104" fill="#018cd6" stroke="none">
 <path d="M0 710 l0 -710 1135 0 1135 0 0 710 0 710 -1135 0 -1135 0 0 -710z m1064 450 l39 -12 -64 -35 c-57 -31 -70 -34 -119 -29 -30 3 -84 2 -120 -3 -36 -5 -68 -6 -71 -2 -4 3 -10 25 -14 48 l-7 42 39 4 c63 8 275 -1 317 -13z m560 -134 c-23 -75 -122 -233 -181 -288 l-29 -28 4 72 c4 62 9 79 42 130 21 32 48 83 61 112 l22 54 44 -15 c38 -13 43 -18 37 -37z m-325 -28 c6 -34 10 -63 8 -64 -4 -4 -146 81 -147 88 0 8 84 36 111 37 13 1 20 -14 28 -61z m-331 -194 l-3 -47 -50 47 -50 46 50 45 50 46 3 -46 c2 -25 2 -66 0 -91z m316 -101 c-17 -77 -26 -103 -33 -103 -7 0 -55 16 -110 36 -9 3 14 22 60 48 41 24 77 44 82 45 4 1 5 -11 1 -26z m-249 -182 c17 -32 48 -81 68 -109 l37 -50 -31 -26 c-17 -14 -35 -26 -40 -26 -24 0 -125 168 -158 262 -11 29 -22 61 -26 71 -6 13 11 7 56 -23 50 -32 69 -52 94 -99z"/>
 </g>
<g id="layer105" fill="#303642" stroke="none">
 <path d="M0 710 l0 -710 1135 0 1135 0 0 710 0 710 -1135 0 -1135 0 0 -710z m1480 470 c78 -11 170 -37 170 -49 0 -53 -65 -205 -123 -291 -41 -59 -107 -131 -116 -125 -4 2 -15 -31 -25 -73 -32 -137 -108 -273 -205 -367 l-41 -39 -46 44 c-76 74 -146 186 -184 295 -10 27 -21 58 -25 68 -6 13 11 7 56 -23 50 -32 69 -52 94 -98 16 -31 46 -79 65 -106 l35 -48 31 37 c89 101 144 266 144 426 l0 99 -75 42 c-41 24 -75 46 -75 50 0 4 26 15 57 24 53 16 59 15 89 -1 18 -10 47 -30 65 -45 l33 -27 0 -121 c1 -67 4 -122 9 -122 4 0 7 27 7 61 0 51 5 67 30 104 48 70 91 168 79 180 -6 6 -60 10 -127 10 -102 0 -128 -4 -204 -29 -48 -15 -118 -47 -155 -70 l-68 -41 -5 -94 -5 -93 -49 43 -49 43 6 70 c6 66 8 73 42 103 81 70 261 146 386 162 88 12 94 12 179 1z m-416 -20 l39 -12 -60 -32 c-57 -31 -67 -33 -164 -33 -57 0 -114 -3 -126 -7 l-22 -7 20 -52 c47 -122 152 -242 281 -320 90 -54 97 -55 175 -11 38 22 72 41 76 42 8 4 5 -13 -14 -90 -8 -33 -17 -41 -71 -67 l-62 -29 -49 18 c-222 85 -420 316 -462 542 l-7 36 54 15 c29 9 67 18 83 20 50 9 267 -1 309 -13z"/>
 </g>

</svg>